<svg height="308.720978" viewBox="0 0 114.42578 109.03632" width="323.917088" xmlns="http://www.w3.org/2000/svg"><g transform="translate(26.302703 -193.08728)"><text stroke-width=".264583" x="-31.339289" y="108.94104"><tspan stroke-width=".264583" x="-31.339289" y="108.94104"/></text><text transform="translate(47.279761 22.76247)"/><g stroke-width=".264583"><text x="-57.489891" y="116.30679"><tspan stroke-width=".264583" x="-57.489891" y="116.30679"/></text><g transform="matrix(-.21921844 -.24131921 .24131921 -.21921844 -27.809917 310.39767)"><path d="m-73.361714 150.12942 5.0444-.50327.763879 7.65658-5.044399.50327-.09029-.90501 4.026264-.40169-.20931-2.09798-4.026264.40169-.09029-.905 4.026264-.4017-.283697-2.84358-4.026264.40169z"/><path d="m-79.621864 154.27066q-.136768-.42828-.06856-.91116.06329-.48131.329892-.88651.293206-.44082.763342-.78624.465213-.34386 1.203619-.57967.792556-.25309 1.474746-.30821.677268-.0535 1.424739.0278l.389867 1.22083-.06892.022q-.704038-.28509-1.512773-.30349-.808735-.0184-1.448687.18597-.905778.28926-1.299423.78927-.398568.50159-.217783 1.0677.155633.48735.470731.64169.310176.15591.838398.12826.400644-.0195.854278-.0938.448712-.0728.962579-.12838 1.040721-.10451 1.672078.24177.628005.35277.884249 1.15517.293972.92055-.296743 1.75473-.589142.83911-1.78536 1.22112-.772865.24681-1.464901.30506-.692036.0583-1.258399.00044l-.367858-1.15192.06892-.022q.531617.22081 1.289759.23366.754792.0194 1.468584-.2086.782711-.24995 1.156458-.72734.368825-.47582.205333-.98778-.1462-.45781-.465809-.64325-.319608-.18545-.959273-.13307-.337061.0317-.949382.11874-.61232.0871-1.048995.11258-.886339.0444-1.439759-.26171-.553419-.30607-.804946-1.0937z"/><path d="m-83.370828 161.5318 2.420393-1.30371-3.217629-5.97364.900823-.48522 3.217629 5.97364 2.420393-1.30372.431304.80074-5.741609 3.09264z"/><path d="m-87.312352 156.37649 1.000018-.72481.864309 1.19249-1.000017.72481z"/><path d="m-94.710497 163.9609 2.601566-3.25269.61341.49062-1.000602 1.25103 4.02752 3.2213 1.000603-1.25103.54884.43897q-.203348.25424-.39539.57708-.188006.32607-.226721.53994-.04759.26633.02184.49391.07024.23485.319641.46079l-.500301.62552-5.415764-4.33164-.981236 1.22682z"/><path d="m-94.337543 172.19098q-.897105-.45895-1.522678-1.0402-.627927-.57664-.931364-1.25429-.310283-.68696-.273074-1.46316.03721-.7762.472625-1.6273.122388-.23922.258256-.43673.131269-.19985.271204-.33723l.878703.44954-.02354.046q-.137262.0981-.326411.30899-.184547.21323-.337531.51227-.520145 1.01672-.207074 1.90246.315318.8927 1.340171 1.5331-.03874-.55966.04384-.99339.08258-.43373.310881-.87998.216531-.42325.475861-.72592.256976-.29808.672723-.52073.48775-.26128 1.026112-.24707.536009.0188 1.138679.32714 1.048923.53662 1.35376 1.56327.304837 1.02664-.20354 2.02036-.254189.49685-.627138.84008-.368349.34558-.838983.50533-.5819.1957-1.292836.099-.706336-.0943-1.658647-.58154zm.67325-.8281q.713083.3648 1.220849.43883.507766.074.878795-.0612.317643-.11031.532148-.31402.219105-.20136.367382-.49119.338918-.66248.122572-1.26075-.2187-.59367-.968588-.9773-.437051-.22359-.77663-.2406-.33958-.017-.697234.17153-.248529.13406-.426229.3566-.173099.22489-.328437.52853-.183581.35884-.275257.77631-.09168.41746-.07241.83365.09426.054.183915.1057.0919.0586.239121.13394z"/><path d="m-93.810753 178.45624-5.377546-5.10036.294685-1.06589 5.55741 5.38064 1.167724-4.2237.871636.24098-1.403196 5.07541z"/><path d="m-98.220822 183.68768q-1.170369-.0793-1.860428-.90293-.68524-.81816-.60946-1.93697.0384-.56714.24514-1.01929.20673-.45215.576263-.7845.457965-.41442 1.180725-.6089.72241-.18932 1.717482-.12192 1.020851.0691 1.795024.33912.773823.27513 1.354887.79618.551876.49317.82815 1.23183.281431.73901.216825 1.69283-.0206.3042-.06035.50868-.03975.20449-.121091.41134l-.984761-.0667.0035-.0516q.08712-.13912.174047-.42847.09174-.28383.112342-.58803.07508-1.1085-.576253-1.81558-.646179-.70674-1.819526-.89499.233612.4509.339376.8776.110571.43221.07321.98388-.03318.4898-.151125.85473-.113142.37044-.412941.74377-.345236.43241-.840092.62679-.495206.19954-1.180929.15309zm.02965-1.04942q.479491.0325.803774-.0906.323933-.1179.577946-.427.18105-.22599.252165-.51123.07111-.28523.09242-.59974.02968-.43824-.04794-.8216-.07762-.38336-.267277-.79502-.11273-.018-.220653-.0305-.102767-.0121-.262597-.023-.814619-.0552-1.300128.0777-.480704.13836-.773867.41373-.24292.22181-.369701.48773-.121974.27143-.143975.59625-.05064.74759.374089 1.20625.429882.45902 1.285747.51699z"/></g><g transform="matrix(.58381561 0 0 .58381561 -30.987473 168.69096)"><g transform="matrix(2.0642511 0 0 2.0642511 -149.46815 -128.02998)"><path d="m118.28765 172.17974c-4.62707-1.29321-9.64327-5.07375-14.16631-10.67668-3.95298-4.89677-7.305902-14.90422-9.375492-27.98297-.368438-2.32833-.723746-4.54989-.789576-4.93679l-.119691-.70345.980743-.39961c.539409-.21979 1.406276-.58068 1.926372-.802l.945629-.40239.05166 1.37316c.753755 20.03446 10.152845 39.20283 21.824955 44.50948 1.69813.77204 1.42431.77659-1.27829.0212zm-.18026-.28502c0-.0728.048-.0829.048-.0101s.0595-.0217.13229-.0217c.0728 0-.18026.10459-.18026.0318zm9.44068-.23949c11.51278-5.90878 19.67256-21.77848 21.59055-41.99077l.31565-3.32646 1.92925.79413 1.92925.79413-.11594.68025c-.0638.37413-.40935 2.46618-.76796 4.649-1.52666 9.2925-4.07251 18.32662-6.56133 23.28333-3.66031 7.28983-12.6471 14.75772-19.11322 15.88281l-1.05834.18414zm-32.623691-66.54647c.32304-1.27269-.05164-1.13769 5.900771-2.12606 18.25735-3.031545 29.91383-3.140793 44.84688-.42032 6.04465 1.10121 6.59626 1.35714 6.61097 3.06729l.004.41999-2.27494-.33636c-1.25122-.18499-2.47161-.50941-2.71198-.72092-.28463-.25045-2.09792-.57878-5.19954-.94147-12.88912-1.50721-21.36905-1.50915-36.36785-.008-4.5212.45239-5.46647.61983-5.745083 1.0176-.243914.34824-.851258.52569-2.261315.66073-1.060309.10153-2.185703.2468-2.500876.32281l-.57304.13819z" fill="#693214"/><path d="m117.09703 166.32842c0-.0728 0 .0728 0 0zm-40.609824-38.53106c1.14808-3.75163 2.84207-5.45422 6.289173-6.32111 3.79785-.9551 3.78568-.9409 2.399298-2.80093-2.554202-3.42682-3.381851-4.01882-6.443235-4.60868l-2.248958-.43333 1.190625-.33865c1.735604-.49366 3.747775-.18761 6.789198 1.03261 3.724273 1.49418 4.115711 1.54853 4.808666.66758l.563508-.71639.269314.70835c.821121 2.15971.353384 3.672-2.092911 6.7668-1.193608 1.51002-1.342924 2.37279-.548192 3.16752.761532.76153 1.242655.6708 3.451312-.65085 2.198666-1.31568 3.849111-1.80486 6.20598-1.83942 4.025926-.059 3.951376.7202-.276366 2.88871-5.419518 2.77981-8.248655 3.13099-11.123446 1.38075-2.830231-1.72311-4.708297-1.52151-8.198956.88013l-1.226968.84418zm92.878844-.64674c-3.15493-2.02991-4.88516-2.12909-7.6733-.43984-2.8465 1.72461-5.766 1.36518-11.46868-1.41196-3.79427-1.84776-4.12662-2.48492-1.50151-2.87857 2.36812-.35513 4.97898.37175 8.67498 2.41514 1.51042.83506 2.52623.65964 2.93655-.50711.30907-.87884.0954-1.31253-1.82869-3.71198-1.629-2.03142-1.92047-3.02066-1.45801-4.94844.36752-1.53199.40865-1.55682 1.10732-.6686.68631.87249.77248.86159 4.52716-.57278l3.23078-1.23424 2.11667-.0156c3.24836-.024 3.71056.48255.81534.89353-1.89902.26957-2.50401.47706-3.41378 1.17085-.98643.75223-4.14288 4.52385-4.14687 4.95505-.002.2586 1.76055.89327 3.94328 1.41962 2.7711.66823 4.4426 2.25524 5.67592 5.38901.59628 1.51512.59154 1.51557-1.53716.14594zm-10.83054-4.20339c-1.43174-2.18511-18.59184-3.87298-39.45411-3.8807-15.75563-.006-25.254241 1.05497-29.723015 3.31947-1.665953.8442-1.670555.81373-.143291-.94899 2.838878-3.27655 2.825126-6.68465-.04214-10.44383-2.070254-2.71425-.174471-3.20464 20.515736-5.30689 10.73359-1.09059 29.65953-.38195 44.31771 1.65939 5.60879.78109 5.82499 1.12479 3.22548 5.12764l-1.10881 1.7074-.0918 2.0101c-.10766 2.3585.23603 3.37841 1.76237 5.22987.90999 1.10383 1.53223 2.17752 1.26194 2.17752-.0515 0-.2855-.29294-.5201-.65098z" fill="#151515"/></g><text x="-100.87717" y="215.78148"><tspan stroke-width=".264583" x="-100.87717" y="215.78148"/></text><g fill="#fff" transform="matrix(-.25374356 -.94500682 .99957584 -.26839587 -176.64695 -35.378906)"><path d="m-194.84785 176.88151q-.3462-.004-.68743.007-.34123.0113-.62607.0594l-.0112.90427q-.007.52706.21223.80883.21874.28178.73029.28811l.27387.003q.26353.003.44534-.072.18174-.0701.29198-.20828.11541-.13811.16951-.33382.0541-.19572.057-.43341.006-.48572-.18709-.75168-.18793-.26589-.66849-.27183zm-1.81547-.71497q.24357-.0538.42997-.0825.1864-.0287.37778-.0418.19138-.0131.40847-.0156.22225-.002.52712.001.87843.0109 1.2756.49123.40227.4856.39025 1.45704-.0115.9301-.40983 1.37996-.39317.44993-1.23542.43951l-.41338-.005q-.84226-.0104-1.2289-.50616-.38664-.49574-.37412-1.50852l.009-.69757-3.87589.82547.0107-.8681z"/><path d="m-200.98828 184.55121 3.32781-.6674.0582-1.38888q-.8146-.43239-1.60944-.71913-.79506-.28159-1.64264-.42055l.0363-.8674q1.32407.24686 2.5175.77271 1.19858.52607 2.29406 1.2909l.0431-1.02745 2.51442.10537-.0363.8674-1.75028-.0734-.0647 1.54377q-.40653-.29634-.79391-.55566-.38223-.25911-.76554-.49241l-.0705 1.68317-3.3433.66676-.0846 2.01877q-.13897-.0162-.22158-.0196-.30979-.013-.61679.031-.30722.0492-.58132.17218l-.28723-.7982q.23732-.10902.48301-.17113.24548-.057.51569-.087z"/><path d="m-196.8178 193.79231q-.13829-.0212-.22072-.0276-.30912-.0242-.61751.009-.3088.038-.58718.15103l-.25815-.80808q.24111-.10036.48889-.15354.24738-.048.5185-.0683l.13866-1.77225-4.04423-.31642.0677-.86551 4.04423.31641.14027-1.79285q-.26467-.0622-.50117-.15325-.23689-.0859-.45946-.22255l.38069-.75809q.25741.15491.55694.23536.29913.0856.60824.10979.0927.007.22234.007l-.20598 2.63261 1.85983.14551.17736-2.26683q.12799.0204.22072.0276.30911.0242.61791-.0139.3084-.0329.58677-.14588l.25815.80808q-.2411.10036-.48848.14839-.24778.0532-.51891.0734l-.17937 2.29259-2.6017-.20356z"/><path d="m-196.41744 201.1798q-.1374-.0264-.21953-.0359-.30798-.0358-.6174-.0145-.31001.0264-.59244.12883l-.22756-.81722q.24471-.0912.49431-.13503.24902-.0387.52071-.0487l.15273-1.31406q-.72746-.14179-1.0153-.66427-.2827-.52188-.17232-1.4715l.0805-.69297-3.94036.42122.10023-.86235 4.17672-.44057q.24782-.0284.43619-.0377.18837-.009.38008-.003.19172.007.4079.0266.22132.0205.52417.0557.87262.10143 1.21811.62021.35003.52451.23787 1.48952-.10382.89316-.51504 1.29797-.40609.40541-1.18022.35185zm.47236-5.04866q-.34392-.04-.68449-.0639-.34057-.024-.62886-.005l-.10441.89829q-.0608.52358.12765.82642.18851.30284.69668.3619l.27205.0316q.26179.0304.4504-.0257.18801-.051.31191-.17705.12904-.12547.20304-.31456.074-.18909.10145-.42521.0561-.48251-.10855-.76697-.1595-.28386-.63687-.33934z"/><path d="m-203.15227 205.36809 2.49589-.21869.238-1.55283q-.20798-.24622-.45485-.47749-.24254-.22538-.52199-.41459-.27945-.18921-.59816-.32694-.3136-.13693-.66959-.20195l.1323-.86325q.53123.0814 1.00244.3157.47042.2394.87921.5739.40801.33962.75242.75313.34951.4143.64246.85653.17564-.66841.6053-.9476.42887-.27409 1.16953-.16057l.0153.002q.73045.11195 1.07366.49914.34321.38719.33849 1.0661l1.55282.23799-.13152.85814-1.54772-.2372q-.16154.57645-.51145.84696-.34558.2764-.91842.26179l-.32645 2.13003q-.13635-.0314-.21808-.0439-.30648-.047-.61646-.037-.31077.0151-.59674.1072l-.1977-.82495q.24787-.0823.4989-.11697.25026-.0296.52213-.0298l.20042-1.30765q-.20984-.0635-.36233-.16009-.14818-.0907-.26887-.22418-.12147-.12841-.23079-.302-.11011-.16849-.2336-.38608-.079-.13236-.17028-.28749-.0869-.14925-.18759-.31106l-.22938 1.49663-3.25884.28474zm4.53451-1.03549q-.0673.43929.10177.70047.1742.26195.66456.33711.49626.0708.7417-.13204.24976-.19698.32022-.6567.0673-.43929-.10176-.70046-.16477-.25528-.64413-.33398-.5057-.0775-.76135.1238-.25055.20209-.32101.6618z"/><path d="m-199.85689 210.38233q.24921-.0107.43776-.007.18856.004.37931.0244.19075.0203.40497.0556.2193.0362.51888.0929.86319.16326 1.17089.70531.31182.54808.13127 1.50267-.17286.91397-.64327 1.28782-.46533.3748-1.29298.21826l-.40621-.0768q-.82765-.15654-1.12231-.7119-.29467-.55536-.10644-1.55057l.12965-.68547-3.96035.13976.46385-2.45248q-.25635-.0906-.48155-.20678-.22616-.11115-.43257-.27115l.46079-.71225q.23906.18195.52808.29447.28805.11759.59271.17521.0914.0173.22026.0311l-.42736 2.25954zm1.6637 1.0194q-.3402-.0643-.6782-.11249-.338-.0481-.62688-.0502l-.16806.88858q-.098.51792.0685.8334.16648.31549.66916.41057l.26912.0509q.25895.049.45108.006.19116-.0375.32372-.1544.13763-.11597.2249-.29931.0873-.18335.13145-.41692.0903-.47729-.0537-.77274-.13889-.2945-.61111-.38381z"/><path d="m-201.04991 218.64564q1.47985.36608 2.03442 1.11546.55834.75564.27292 1.90942-.26681 1.07852-1.05043 1.47025-.78487.39673-2.14928.0805l-.60807 2.45804q-.13296-.0435-.21323-.0634-.30098-.0745-.6106-.0925-.31086-.013-.60398.0529l-.12239-.83943q.25428-.0595.50743-.0714.2519-.007.52268.0175l.40456-1.63535-3.93788-.97416.20848-.84275 4.4947 1.1119q1.0685.26433 1.64945.0248.58598-.23832.76468-.96069.17249-.69728-.2172-1.16632-.39093-.46402-1.41929-.71842l-4.56995-1.13052.20848-.84276z"/><path d="m-208.23104 228.04629 3.13705.90843.6497-2.2436q.29443.0422.56966.095.27875.0592.54679.13682.68499.19836 1.12479.48173.43979.28337.68272.63348.2479.35154.32806.76211.0802.41057.0459.86332-.0293.45419-.14391.94285-.11461.48867-.26122.99497l-.23861.82397q-.13114-.0487-.22049-.0746-.29782-.0862-.60649-.11645-.31011-.0252-.60559.0291l-.0893-.8436q.25643-.0495.50488-.0529.24702.002.51663.0366l.0992-.34249q.20986-.7247.27352-1.2604.0637-.53569-.0613-.92158-.12497-.38588-.45413-.6426-.32916-.25671-.89998-.42201-.26804-.0776-.60427-.14271l-.66838 2.30812-3.86672-1.11972z"/><path d="m-203.06727 238.68412-1.905.52151q-.39197.93635-1.21291 1.19577-.82261.26431-2.1327-.18476l-3.44634-1.18132.28151-.82125 3.39256 1.16288q1.04123.35691 1.64094.16916.6046-.18608.84589-.89002.23291-.67949-.11419-1.18086-.34879-.49649-1.35091-.83999l-3.46589-1.18802.2815-.82125 3.33391 1.14277q1.19766.41053 1.73332 1.03117.54055.62231.45821 1.46813l1.99187-.55183z"/><path d="m-208.67522 249.00224q-.12649-.0598-.20364-.0895-.28934-.11144-.59429-.16797-.30681-.0517-.60586-.0229l-.0167-.84815q.25973-.0273.51238-.008.25079.0246.51641.0826l.6389-1.65888q-.43401-.16716-.77075-.45745-.33379-.2836-.60817-.64955-.27142-.35927-.49458-.77194-.22502-.40784-.43668-.82162-.19497-.3852-.38588-.75222-.1909-.36702-.40892-.67803-.21319-.30915-.46871-.55154-.25069-.24053-.56711-.36794l.31945-.82944q.41287.16455.73329.45409.32525.29139.58998.65362.26474.36223.48308.77305.22316.41267.43482.82644.19498.3852.39256.74926.19573.36888.41857.68174.22283.31287.48689.54747.26702.24128.59976.36944l.64076-1.66371q-.2359-.13516-.43655-.28996-.20251-.14998-.37679-.34447l.58129-.61785q.20247.22196.46656.38459.26223.16744.55157.27888.0868.0334.21107.0702z"/><path d="m-210.2903 255.016q-.14326-.0724-.2288-.10897-.28514-.12179-.58785-.18928-.30474-.0627-.60464-.0447l.0139-.8482q.25579-.02.50756.009.24975.0336.51786.10319.20497-.51934.30078-.96729.0938-.4432.0465-.84552-.0446-.39554-.24451-.75628-.19721-.35396-.57897-.69684-.37903-.3361-.95212-.66518-.57309-.32908-1.36672-.66806-.29939-.12789-.63339-.25369-.33127-.11902-.68358-.24141l-1.53864 3.60221q-.12426-.0643-.20029-.0968-.28514-.12179-.58785-.18928-.30474-.0627-.60464-.0447l.0139-.8482q.26054-.018.51232.0109.24974.0336.5131.10116l1.52849-3.57845q.47721.15888.95714.32454.4779.17041.90085.35107 1.10253.47093 1.83932.94298.73476.47681 1.16894.96008.43214.48803.60375.99402.1716.50598.15054 1.04206-.0211.53607-.19747 1.10694-.17641.57087-.43351 1.18594z"/><path d="m-215.67284 260.6582q-.12189-.0687-.19673-.10381-.28065-.13181-.58079-.20996-.30233-.0735-.60267-.0661l.0439-.84717q.26101-.009.51161.029.2484.0424.5092.11925l.75568-1.60905-3.67182-1.72444.36906-.78581 3.67181 1.72444.76446-1.62776q-.22565-.15165-.41474-.32038-.19128-.16405-.35124-.37049l.62391-.57478q.18611.23585.43792.41691.24961.18574.53025.31754.0842.0395.20553.0851l-1.12254 2.39019 1.68857.79302.96657-2.05808q.11254.0643.19673.10381.28065.13181.58298.20529.30014.0782.60048.0708l-.0439.84717q-.26101.009-.50941-.0337-.2506-.0378-.5114-.11457l-.97755 2.08147-2.36212-1.10935z"/><path d="m-222.18036 262.8581 1.27113.6804q.23235.12437.40272.23315.17492.11121.31911.24701.14874.13823.27797.31291.13135.18167.28599.44028l.44357.7591.40727-.76085q.33194.20112.59638.41887.26444.21774.43923.41681l.29996-.56039 2.55591 1.36811-.4097.76541-2.16866-1.16082q.4747.88711-.10571 1.97144-.51213.95676-1.3787 1.10835-.869.15615-2.15835-.534l-3.21198-1.71928.4097-.76541 3.16186 1.69246q.97043.51944 1.58031.45318.61444-.0638.94123-.67432.27801-.51939.10361-.982-.16983-.46018-.83732-.89952l-.45116.84286-.23235-.12437-.48477-.85735q-.15643-.27716-.27623-.45851-.12224-.17679-.25487-.31226-.13508-.13092-.303-.24425-.17037-.10878-.4164-.24047l-1.21645-.65113z"/><path d="m-219.37302 273.73067-.44228.76502-7.82138-1.86549.43969-.76055 5.0442 1.19709q.0596-.64003-.12785-1.21401-.19007-.5695-.60725-1.09719-.4153-.52064-1.04995-1.0129-.63465-.49226-1.46677-.97333l.43451-.75159q1.07371.62073 1.79553 1.24098.71924.62472 1.14096 1.26846.42173.64374.56384 1.31683.144.68016.0609 1.40212z"/><path d="m-224.95835 276.03706q-.20522-.17833-.37204-.3691-.16958-.18641-.30285-.411l.69006-.4934q.15559.257.38314.46775.22478.21511.48702.38054.0787.0496.19346.10981l-1.35098 2.14163q1.1624.78214 1.40915 1.64043.244.86267-.36532 1.82859-.60656.96155-1.49551 1.07287-.8917.1157-2.12861-.66456l-3.9642-2.50068.46319-.73427 3.91613 2.47035q.93095.58726 1.55779.54276.63121-.0417 1.02823-.67111.38323-.60753.16101-1.1754-.22497-.5635-1.12096-1.1287l-3.98169-2.5117.46319-.73428 3.43098 2.16431z"/></g><text x="130.09508" y="122.20757"><tspan stroke-width=".264583" x="130.09508" y="122.20757"/></text><g fill="#fff" transform="matrix(-.27424288 -.94383683 .94383683 -.27424288 -121.66998 100.40223)"><path d="m-65.84744 171.29507.09045-5.06864 7.693371.13729-.09045 5.06864-.909357-.0162.0722-4.04561-2.108056-.0376-.0722 4.04561-.909358-.0162.0722-4.04561-2.857243-.051-.0722 4.0456z"/><path d="m-66.009974 175.83525q-.05942-.27698-.09061-.60436-.03143-.32222-.01955-.57516.04145-.88269.537917-1.3198.49647-.43712 1.544344-.38791l3.066192.14397.03078-.65557.815586.0383-.03078.65556 1.656983.0778-.04557.97044-1.656983-.0778-.09404 2.00283-.815587-.0383.09404-2.00284-2.627427-.12337q-.454251-.0213-.713318-.0128-.253904.009-.481685.12224-.211809.10387-.319097.29541-.102367.19696-.121515.60475-.01115.23745.04384.4987.06015.26149.101273.37723l-.0024.0516z"/><path d="m-66.493304 181.81682.07393-.9687 3.27708.25012q.396753.0303.74552.0102.353919-.0196.559157-.12835.226243-.1123.347779-.34661.126689-.23391.156184-.62036.03028-.39675-.132484-.84452-.162766-.44776-.43649-.86772l-4.297303-.32798.07394-.9687 8.017509.61192-.07393.9687-2.900937-.22141q.341535.48214.515826.98261.174291.50047.135358 1.01059-.07118.93262-.67018 1.37926-.598998.44663-1.655289.36601z"/><path d="m-60.087787 185.40339.111685-1.08983 1.002437.10273-.111685 1.08983zm-6.697156-.74865.09904-.96645 5.742165.58845-.09904.96645z"/><path d="m-64.747839 191.81326q-1.399325-.17928-2.117252-1.00064-.717927-.82136-.563603-2.02591.155638-1.2148 1.057442-1.82864.901147-.60872 2.300471-.42944 1.399324.17928 2.117908.99552.723053.82201.567415 2.03681-.154324 1.20455-1.061253 1.81774-.901804.61384-2.301128.43456zm.1274-.99439q1.112283.1425 1.706304-.22423.599147-.36608.698309-1.14006.100475-.78424-.387033-1.28954-.483038-.49951-1.595322-.64202-1.076403-.1379-1.690927.2262-.609399.36477-.709217 1.14388-.09851.76886.394128 1.27481.497103.51174 1.583758.65096z"/><path d="m-65.737879 198.42623q-.6935-.11394-1.237042-.40748-.538444-.29271-.876703-.7201-.322051-.39855-.45572-.89183-.129407-.48735-.04563-.99728.07289-.44363.229257-.78976.155531-.34103.420661-.67977l-2.386455-.39208.157505-.95866 7.796771 1.28098-.157504.95866-.596614-.098q.258419.43522.394674.94464.140515.51536.05171 1.05588-.169234 1.03005-1.043254 1.47299-.869758.44887-2.251658.22183zm.137035-.99345q1.030051.16924 1.597785-.0988.567734-.26807.687538-.99727.06786-.41304-.04192-.8605-.109775-.44746-.337598-.87766l-3.227833-.53032q-.250597.37778-.364641.65754-.114883.28487-.176042.65712-.131533.80058.335263 1.33812.466797.53754 1.527443.7118z"/><path d="m-62.525004 201.72248.205555-1.07608.989791.18908-.205555 1.07608zm-6.607272-1.32526.182284-.95426 5.669724 1.08304-.182285.95426z"/><path d="m-70.448114 206.66834.205272-.94429.600914.13062q-.0584-.1449-.167741-.39606-.105387-.24502-.152373-.46677-.06455-.26258-.07334-.58708-.01383-.32559.07618-.73967.165755-.7625.785984-1.18295.62023-.42045 1.402932-.2503.641311.13941.97591.49772.338551.36445.454918.92386.11527.56447.03909 1.30414-.07618.73967-.215806 1.5766l.146441.0318q.32318.0703.560515.00022.236237-.065.403533-.25073.160052-.17674.261921-.45074.10187-.27401.16883-.58204.08123-.37367.08013-.85515.0039-.48038-.07641-1.01081l.01098-.0505.964491.20966q.01537.2942-.0079.83913-.02327.54493-.134137 1.05494-.12953.59587-.326025 1.01324-.192543.42351-.500132.6951-.301442.26764-.706294.35414-.404852.0865-.950219-.032zm1.593937-.64242 1.570455.34139q.06915-.43976.14709-1.04156.07684-.59674.05554-.96097-.02723-.43428-.219777-.74055-.1875-.30517-.616724-.39848-.48477-.10538-.795873.13371-.306052.2402-.43668.84111-.108674.49992-.0068.95571.106925.45688.302769.86964z"/><path d="m-72.06891 213.16674.240136-.94137 3.184628.81238q.38556.0984.732544.13887.35199.0418.572922-.0299.242239-.0715.402419-.28133.165187-.20851.260986-.58406.09835-.38556.01537-.85471-.08298-.46915-.280057-.93007l-4.176068-1.06529.240136-.94137 5.593128 1.42677-.240137.94137-.620902-.15839q.253127.53389.338357 1.05694.08523.52306-.04122 1.01878-.231195.90631-.898334 1.24278-.667138.33646-1.69363.0746z"/><path d="m-74.899107 224.44986q-.0318-.30847-.06453-.56299-.0343-.2496-.03449-.64019.0022-.33015.05129-.70504.04256-.37154.17759-.79495.254368-.79757.684749-1.38171.433734-.57765 1.065171-.90783.61845-.32347 1.422042-.36008.808515-.0351 1.763636.26957.905889.28891 1.538119.77259.632231.48369.970685 1.12319.328394.62002.36908 1.35982.03912.74473-.218392 1.55215-.18842.5908-.518046 1.13113-.331196.54527-.919842 1.14945l-1.156977-.36899.02355-.0738q.700231-.44384 1.121617-.96576.421386-.52193.638069-1.20134.177429-.55634.138152-1.06245-.03592-.49963-.303536-.97008-.260907-.45748-.76585-.83005-.501591-.36609-1.240086-.60161-.772959-.24652-1.39524-.21717-.623851.0343-1.078607.25265-.474236.22844-.797501.62978-.319911.40784-.483209.91986-.224534.70403-.179563 1.39638.04497.69236.356306 1.38287l-.02198.0689z"/><path d="m-74.849009 231.17772q-1.326887-.47919-1.849093-1.43698-.522205-.95778-.109719-2.09998.415997-1.15191 1.429676-1.55503 1.011923-.39827 2.338811.0809 1.326887.47919 1.850848 1.43211.527066.95954.111069 2.11146-.412486 1.14219-1.431025 1.54356-1.013679.40312-2.340567-.0761zm.340521-.94292q1.054705.38089 1.714244.15206.664399-.22708.929443-.961.268555-.74364-.09745-1.34283-.3629-.59257-1.417605-.97346-1.020683-.36861-1.699663-.1468-.674119.22357-.940919.96235-.263289.72906.107576 1.33.37397.60756 1.404374.97968z"/><path d="m-72.641374 237.08387.0189-.0481q.101864-.1321.239629-.35558.142575-.22159.214377-.40437.228634-.58198.07283-.94855-.152883-.35988-.826253-.62441l-.182771-.0718-.640554 1.63051-.759945-.29855.629216-1.60165-4.612582-1.81207.355233-.90424 4.612582 1.81207.239971-.61084.759946.29854-.239971.61084.177962.0699q.957146.37602 1.279919 1.05248.327583.67834-.02576 1.57777-.119041.30302-.242377.53217-.125225.23396-.243064.42086z"/><path d="m-74.132757 240.64999.01987-.0477q.104532-.13.246818-.35063.147056-.21864.222564-.39992.240434-.5772.09213-.94687-.145526-.36292-.813371-.6411l-.181272-.0755-.673613 1.61714-.75371-.31396.66169-1.58851-4.574738-1.90559.373567-.89682 4.574738 1.90558.252356-.60583.753711.31396-.252356.60583.176502.0735q.949294.39543 1.258229 1.07832.313705.68487-.05787 1.57692-.125185.30053-.25316.52713-.129962.23136-.251581.41582z"/><path d="m-80.370127 244.03314 1.742313-3.87969q-.485551-.21805-.914163-.23493-.423898-.0148-.769207.13607-.336362.14351-.599809.42741-.265563.2886-.447628.69401-.241341.53741-.272665 1.17479-.02873.64422.07496.96836l-.02117.0471-.966387-.43399q.01255-.53252.09486-1.05637.08231-.52386.313061-1.03769.588533-1.31052 1.625902-1.72836 1.042082-.41573 2.347883.17069 1.291658.58007 1.735188 1.62331.441413 1.04795-.07514 2.19818-.478448 1.06539-1.358984 1.36106-.882653.30038-2.028175-.21406zm1.066243-.55783q.699801.30861 1.238302.13125.536384-.17265.853938-.87977.319671-.71182.09065-1.3245-.231138-.60797-.827993-.94399z"/><path d="m-83.174322 249.78689 1.874831-3.81742q-.477756-.23464-.905534-.26625-.423138-.0293-.773435.10951-.341102.13185-.614165.4065-.275341.27929-.471253.6782-.259697.52878-.312944 1.16471-.05089.64284.04158.97036l-.02278.0464-.950874-.467q.03088-.53177.131167-1.05248.100289-.52071.348596-1.0263.633296-1.28947 1.684433-1.67136 1.055776-.37961 2.340616.25141 1.270925.62419 1.678281 1.68207.405078 1.06253-.150765 2.1943-.514838 1.04829-1.40503 1.31347-.89247.26982-2.019604-.28374zm1.084814-.52079q.688763.33251 1.23305.17379.542009-.15409.883716-.84985.343984-.7004.13619-1.3206-.210073-.61557-.795007-.97193z"/><path d="m-88.96789 259.17056q-.391619-.22082-.670172-.62111-.281091-.3958-.361389-.87415-.08504-.52255.02449-1.09556.106992-.56852.48771-1.24373.408638-.72472.871097-1.22925.45992-.50003 1.063071-.94896l1.116339.62945-.03553.063q-.709937.27007-1.315148.80683-.605212.53676-.935168 1.12193-.467015.82826-.415309 1.46253.04917.63877.566825.93065.445636.25128.781568.15.333394-.0968.701703-.47642.280387-.28684.562259-.64996.279335-.35863.618098-.749.691606-.78467 1.389903-.96045.700261-.16874 1.433984.24497.841756.47463.976395 1.48789.139141 1.01579-.477623 2.10962-.398485.70671-.86602 1.22025-.467535.51353-.921945.85649l-1.05332-.59392.03553-.063q.539838-.19987 1.104202-.70626.566326-.49936.934354-1.15206.403561-.71572.352669-1.31987-.05343-.59964-.521573-.86361-.418627-.23605-.779029-.1545-.360403.0815-.793554.55514-.225459.25256-.614984.73296-.389526.48039-.692181.79621-.619388.63555-1.233212.78777-.613824.15222-1.334043-.25388z"/><path d="m-92.465443 260.69735.638471-1.05723 1.260713.76136-.638471 1.05723z"/><path d="m-96.436984 267.9931q.05013-.30602.08522-.56023.03229-.24986.134447-.62686.08866-.31804.234214-.66698.13841-.34741.379658-.72064.454444-.70308 1.022834-1.15406.569926-.44383 1.265811-.59704.681595-.15014 1.46671.0251.789454.17801 1.631404.72222.798551.51616 1.281973 1.14859.483422.63243.642507 1.33827.15448.6844-.00008 1.40902-.157365.72896-.61742 1.44071-.336624.5208-.796303.9559-.462483.43944-1.18886.86829l-1.019889-.65922.04208-.0651q.792056-.24488 1.335464-.63817.543408-.39329.930526-.9922.316989-.49041.411685-.98914.09623-.49158-.03878-1.01572-.131937-.50985-.521629-1.00171-.388156-.48471-1.039149-.90549-.681372-.44042-1.289605-.57513-.611039-.13037-1.107124-.0388-.517521.0962-.934644.39884-.415587.30977-.707329.76113-.401145.62061-.539138 1.30056-.137994.67995-.01845 1.42791l-.03927.0608z"/><path d="m-98.597438 270.11486.701757-1.01633 1.211936.83683-.701757 1.01632z"/></g></g></g><ellipse cx="31.296358" cy="264.29764" fill="#f2d90b" rx="20.361284" ry="22.650913"/><g transform="matrix(.5259838 0 0 .5259838 -44.075173 179.05165)"><path d="m121.04585 173.69926c-.28024-.75542-.84079-2.26649-1.28559-3.46682-.44479-1.20034-.7738-2.0899-1.10284-3.09526s-.65806-2.12646-.88961-3.17448c-.23156-1.04802-.36561-2.02289-.482-2.91279s-.21512-1.69479-.27311-2.42038c-.058-.72559-.0752-1.37185-.0752-2.02674s.0172-1.31839.0935-2.14654c.0763-.82816.21155-1.82092.40104-2.63419.1895-.81327.43322-1.44693.76225-2.11719s.74335-1.37704 1.10284-1.95589c.3595-.57885.66414-1.02973.98709-1.45017.32294-.42044.66414-.81038.99317-1.16988s.64587-.68851.99927-1.04496.74335-.7403 1.18054-1.11352c.4372-.37321.92159-.73574 1.37857-1.06477.45699-.32903.88654-.62454 1.35574-.87893.46919-.25439.97795-.46764 1.61083-.67893.63288-.2113 1.38981-.42064 2.05267-.55546.66285-.13482 1.23156-.19513 2.04586-.25329.81431-.0582 1.87416-.11417 2.89527-.12925 1.02111-.0151 2.0034.0108 2.77892.002.77552-.009 1.34423-.0517 1.76215-.0819.41791-.0302.68502-.0474.97582-.10557.2908-.0582.60529-.15727.87667-.30159.27138-.14433.49972-.33389.67419-.54712.17446-.21322.29509-.45017.38127-.75602.0862-.30585.13788-.68068.16374-1.07705.0259-.39636.0259-.81427-.028-1.27526-.0538-.46099-.16154-.96507-.28003-1.5661-.11848-.60103-.24773-1.29899-.40498-1.96465-.15724-.66565-.3425-1.29898-.53423-2.02496-.19174-.72598-.38992-1.54457-.55796-2.27701-.16803-.73244-.30589-1.37869-.40069-1.88709-.0948-.50841-.14649-.87892-.19388-1.18482-.0474-.3059-.0905-.54717-.0819-.76264.009-.21547.0689-.40504.15077-.55589.0819-.15086.18528-.26288.31455-.37492.12928-.11203.28438-.22405.45243-.33176.16804-.10772.34899-.21112.70665-.29298.35766-.0819.8919-.14216 1.37015-.17663.47824-.0345.90046-.0431 1.33562-.0603.43515-.0172.88322-.0431 1.30114-.056.41793-.0129.80568-.0129 1.24945-.009.44378.004.94354.013 1.69753.0388.75399.0259 1.76214.069 2.49459.1336s1.18913.15081 1.66307.28008c.47393.12928.96508.30161 1.34853.46536.38345.16374.65919.31885.82712.51708.16794.19824.22825.43952.20235.80138-.0259.36187-.13791.84439-.2619 1.31832s-.25995.93922-.42755 1.57005c-.16759.63083-.36682 1.42712-.50238 2.04482-.13556.61769-.20745 1.0567-.2641 1.50571-.0566.44901-.0981.90797-.19533 1.42223-.0973.51426-.2503 1.08382-.3746 1.70942-.12431.6256-.21989 1.30714-.31643 1.82765-.0965.52051-.19402.87998-.27322 1.38574-.0792.50575-.14013 1.15769-.21935 1.80964-.0792.65196-.1767 1.30391-.23153 2.35194-.0548 1.04803-.067 2.49204-.0549 3.9818.0122 1.48977.0487 3.02517.11882 4.36566.0701 1.34049.17366 2.48596.23414 3.36335.0605.8774.0779 1.48668.15876 2.21652.0809.72984.2252 1.58012.40684 2.35765.18164.77754.40055 1.48221.81134 2.35793.4108.87572 1.01337 1.92238 1.87036 3.05295.85698 1.13057 1.96821 2.34494 2.70466 3.13443.73644.78949 1.09801 1.15402 1.46065 1.4991.36263.34509.72629.67071 1.15608.99837s.92565.65735 1.52249.80994c.59684.1526 1.29463.12823 1.83424-.005.5396-.13324.9211-.3753 1.51708-.99791.59597-.62262 1.40645-1.62582 2.30071-2.73062.89425-1.10479 1.87224-2.31113 2.73609-3.38393.86384-1.07281 1.61349-2.01203 2.46411-2.88798s1.81374-1.69847 2.52033-2.28873 1.16242-.95319 1.73075-1.27254 1.24904-.59508 1.98993-.87669 1.54189-.56907 1.99119-.67614.5468-.0339.61986.0514c.0731.0853.12181.18283.18272.34734.0609.16451.13402.39605.0913.81642-.0427.42038-.20112 1.02967-.43265 1.55362-.23154.52396-.53618.96265-.98097 1.5232s-1.02971 1.24296-1.54153 1.84617c-.51183.60322-.95052 1.12721-1.46843 1.77308-.51792.64587-1.11502 1.41358-1.63903 2.14476s-.97489 1.42578-1.44406 2.23008-.95661 1.71824-1.38312 2.52862c-.42652.81038-.79209 1.51715-1.09674 2.08381-.30465.56665-.54837.99315-.73116 1.43189s-.30465.88961-.40214 1.32224c-.0975.43262-.1706.84694-.23153 1.27346-.0609.42652-.10967.86522-.1736 1.26743-.0639.40222-.14304.76797-.24343 1.36183-.10039.59385-.22206 1.41574-.33483 2.06453-.11276.64879-.21659 1.12443-.42088 2.03187-.20429.90743-.50899 2.24655-.71297 3.24361-.20397.99706-.30719 1.65192-.6087 2.80658-.30152 1.15466-.80128 2.80906-1.15458 3.91201-.35329 1.10296-.56009 1.65442-.8186 2.25759s-.56871 1.25804-.922 2.05512c-.3533.79707-.74967 1.73629-1.05652 2.48953-.30686.75324-.52419 1.32046-.82147 2.07013-.29729.74968-.67451 1.68177-1.04839 2.49248-.37388.81072-.7444 1.50005-1.15369 2.11182s-.85736 1.146-1.30111 1.59407c-.44376.44806-.8832.80996-1.37865 1.12878-.49544.31881-1.0469.59454-1.7061.92629-.6592.33176-1.42608.71951-2.36305 1.12022-.93696.4007-2.04398.81434-2.86559 1.10038-.82161.28603-1.35778.44445-1.99755.61201s-1.38311.34425-2.0838.48439c-.7007.14015-1.35873.24373-2.35412.30882-.99538.0651-2.32809.0916-3.54594.0877-1.21785-.004-2.32078-.0384-3.27726-.0901-.95647-.0517-1.76643-.12063-2.75306-.34895s-2.14988-.61607-3.08051-1.04257c-.93064-.4265-1.62859-.8918-2.42566-1.52082-.79708-.62902-1.69321-1.42175-2.48168-2.30928-.78848-.88752-1.46919-1.86981-2.02068-2.72289-.5515-.85307-.97371-1.57686-1.38525-2.51676-.41153-.9399-.81229-2.0958-1.21163-3.0027-.39935-.90689-.79729-1.56466-1.13067-2.40539-.33338-.84072-.60207-1.86431-.85761-3.24525s-.49785-3.11907-.71379-4.44053c-.21594-1.32147-.4055-2.22621-.5477-3.10946-.14219-.88326-.23698-1.74491-.30615-2.83074-.0692-1.08582-.11271-2.39567-.0653-3.30051.0474-.90483.18569-1.40442.26349-1.82224.0778-.41783.095-.75386.19411-1.0943.0991-.34043.28002-.68509.49366-1.04235s.45995-.72706.58312-.91199c.12317-.18492.12325-.18485-.15698-.94026z" fill="#693214"/><path d="m128.75435 167.21017c1.20642-.42057 3.58271-1.3589 5.01454-2.01694 1.43182-.65804 1.91926-1.0358 2.33355-1.63895.4143-.60316.7555-1.43179 1.15764-2.37622.40215-.94444.86521-2.00461 1.25516-2.90638.38996-.90177.70679-1.64511.9627-2.40672.25592-.76162.45089-1.54151.6154-2.26658.16452-.72507.29856-1.39529.3656-1.99238.067-.5971.067-1.12109.0183-1.56587s-.1462-.81035-.35941-1.20032c-.2132-.38996-.54221-.80427-.95043-1.21862-.40822-.41436-.89564-.82867-1.41964-1.16383s-1.08453-.59106-1.60854-.77389c-.52401-.18282-1.01146-.29249-1.47453-.41434-.46307-.12184-.90175-.25588-1.35268-.28638-.45092-.0305-.91399.0426-1.45017.10355-.53618.0609-1.14548.10969-1.88889.33512-.7434.22543-1.62078.62756-2.27885.96878-.65808.34121-1.09676.62149-1.53549.96271-.43872.34123-.87742.74337-1.25414 1.09633-.37672.35297-.69146.65675-.97933.99829-.28787.34155-.54882.72078-.81483 1.12798s-.53705.84232-.72385 1.28181c-.18679.43948-.28933.88322-.46036 1.85931-.17104.97608-.41057 2.48439-.47652 3.60033-.066 1.11595.0416 1.83933.22786 2.46724.18623.62791.45101 1.16026.6626 1.60924.21159.44897.37.81455.52843 1.16795.15842.35339.31683.69459.58496 1.11501s.64588.92004.981 1.37093.62758.85302 1.12726 1.24293c.49967.3899 1.20645.76766 1.57805 1.00535s.40815.33512 1.61458-.0854z" fill="#f0df00"/><path d="m126.86026 170.54045c.69804-.40503 1.6976-.71523 3.01604-.87893 1.31843-.16371 2.95559-.18094 4.10165-.15507 1.14607.0259 1.80092.0948 2.23177.18963.43086.0949.63766.21548.73232.68945.0947.47397.0774 1.30116.0861 2.11116.009.81.0431 1.60273.12929 2.2921.0862.68937.22406 1.27529.34468 1.90433.12063.62904.22403 1.30114.37054 1.91294.14651.61181.33608 1.16328.47393 1.61998.13786.45669.22403.81859-1.23226 2.0593-1.45628 1.24071-4.45489 3.36041-6.0317 4.4289-1.5768 1.06849-1.73191 1.08573-2.18858.81869-.45668-.26703-1.21494-.81849-1.97324-1.44752-.7583-.62902-1.51657-1.33559-2.05947-1.97322-.5429-.63762-.87034-1.20632-1.16332-1.76642-.29299-.5601-.55149-1.11157-.72385-1.51657-.17235-.405-.25852-.66349-.30164-1.05127-.0431-.38778-.0431-.90478.0344-1.49076.0775-.58599.23263-1.24086.44805-1.90438s.49116-1.33562.87031-2.0767c.37915-.74109.86168-1.55104 1.30115-2.20595.43947-.6549.83584-1.15467 1.53387-1.55969z" fill="#fff"/><path d="m150.73749 185.35288c1.34426-1.03411 4.01548-2.98152 5.42007-3.98108s1.54245-1.05126 2.57653-.0171c1.03408 1.03417 2.96422 3.15387 3.94647 4.29131s1.01671 1.29253 1.03392 2.27485c.0172.98232.0172 2.79183-.00004 3.75689-.0173.96505-.0517 1.08566-.50842 2.04213-.45671.95647-1.33561 2.74874-1.86118 3.68791-.52557.93918-.6979 1.02534-2.31784 1.0426-1.61993.0172-4.68746-.0344-6.29019-.0603-1.60274-.0258-1.74061-.0258-2.07676-1.86978-.33615-1.84392-.87038-5.53185-1.1203-7.48791s-.21545-2.18009-.1896-2.35242c.0258-.17234.0431-.29299 1.38734-1.32711z" fill="#fff"/><path d="m126.99811 202.53478c.72385-.43086 2.17148-1.29254 2.95992-1.75785.78845-.46531.91771-.53425 1.15907-.48247.24136.0518.59464.22412 1.10304.47832s1.17189.59026 1.90864.95217c.73675.3619 1.54671.74965 2.37825 1.09431.83153.34466 1.68458.64625 2.48595.90044.80138.25419 1.55103.46098 1.99479.57729s.58164.14214.6936.24995.19812.29737.22821 1.24091c.0301.94354.004 2.64102-.0991 3.52844-.10337.88742-.28431.96496-1.44325 1.03391-1.15894.069-3.29587.12927-4.61853.0647-1.32267-.0646-1.83106-.25415-3.23995-1.40015-1.40889-1.14601-3.71816-3.24848-4.92023-4.34714-1.20206-1.09865-1.29682-1.19341-1.3314-1.30976-.0346-.11636-.009-.25422.004-.32323.013-.069.013-.069.7368-.49983z" fill="#fff"/><g fill="#97714b"><path d="m142.62805 123.51701c-.0183.061-.0548.18286-.0609.32915-.006.14629.0183.31689.21338.43256.19507.11567.56066.1766 1.02372.21923.46307.0426 1.02362.067 1.69386.12184.67025.0549 1.45014.14014 2.19349.18278.74335.0426 1.45012.0426 1.96194.0426s.82865 0 .97477.12805c.14613.12805.12176.38396-.00011.7373-.12187.35335-.34122.80423-.57276 1.49278-.23153.68855-.47525 1.61467-.64585 2.46772-.17059.85305-.26808 1.63294-.329 2.54083-.0609.90789-.0853 1.94367-.0792 2.84546.006.90178.0427 1.66948.067 2.54079.0244.87131.0366 1.84617.0792 2.79061.0427.94444.11578 1.85838.18891 2.49816.0731.63978.14625 1.00535.33517 1.51718.18892.51182.49357 1.16986.6702 1.29777s.22538-.27422.27412-.77994c.0487-.50572.0975-1.11502.0914-1.79743-.006-.6824-.067-1.43791-.0914-2.32142s-.0122-1.89494.006-2.86984c.0183-.9749.0427-1.9132.14622-2.94904.10357-1.03585.28635-2.16913.5971-3.53399.31074-1.36487.74943-2.96121 1.09065-3.98488.34121-1.02367.58492-1.47454.83473-1.96198.24982-.48744.50572-1.01143.6337-1.28558.12797-.27414.12797-.29844.11581-.37155-.0122-.0731-.0365-.19496-.14001-.31078-.10348-.11582-.28627-.22549-.60922-.2865-.32295-.061-.78601-.0732-1.43797-.0915s-1.49278-.0426-2.77844-.0548c-1.28565-.0122-3.01603-.0122-4.16155.0487s-1.70607.18278-1.98643.24372c-.28036.061-.28046.061-.29876.12196z"/><path d="m160.6758 169.61689c.128.21947.55451.60942.95054 1.03595s.76161.8896 1.2064 1.46235.96879 1.25515 1.41966 1.89493.82864 1.23689 1.17593 1.82792c.3473.59103.66413 1.17595.88344 1.79744.2193.62149.34116 1.27953.34112 1.8827-.00004.60318-.12189 1.15154-.28641 1.68161s-.37168 1.04188-.50571 1.5903c-.13404.54841-.19497 1.13334-.24371 1.70609-.0487.57276-.0853 1.13329-.14624 1.71214-.0609.57884-.14624 1.17593-.1523 1.69387-.006.51794.067.95664.19506 1.15758.12801.20093.31081.16438.56663-.0549.25583-.21932.58485-.62146.83466-1.35865.24981-.7372.42041-1.80955.60929-2.77836s.39604-1.834.62632-2.8458.4887-2.19313.64104-3.14972c.15233-.9566.20108-1.69993.20718-2.48593.006-.78599-.0305-1.61463-.26798-2.24223-.23754-.62759-.67623-1.05409-1.23677-1.45627-.56055-.40218-1.24296-.77994-1.96803-1.18208-.72508-.40214-1.49279-.82865-2.16912-1.15769s-1.26125-.56057-1.6573-.71899-.60321-.24372-.79214-.26207c-.18894-.0184-.35955.0304-.23156.24986z"/><path d="m119.60489 159.26553c.11194-.20253.19811-.83156.2412-1.54245.0431-.71088.0431-1.50361.17664-2.41273.13355-.90911.40066-1.9345.81261-2.92942.41194-.99492.9687-1.95925 1.38387-2.67835.41518-.7191.68875-1.19293 1.10403-1.83097.41528-.63803.97225-1.44021 1.48343-2.01368.51117-.57348.97647-.91814 1.45043-1.20251.47396-.28436.9565-.50839 1.37872-.7152s.78412-.39638 1.17189-.58595.80137-.37913 1.2064-.50838.8014-.19818 1.07705-.3188.43075-.29295.46528-.46517c.0345-.17223-.0516-.34456-.38767-.38777-.33604-.0432-.92196.0429-1.5941.19804-.67214.1551-1.43041.37913-2.0681.63764-.63768.25851-1.15468.55147-1.68032.8703s-1.05987.6635-1.48208.89615c-.4222.23265-.7324.35328-1.10299.67215-.3706.31886-.80142.83586-1.27536 1.51661-.47394.68076-.99094 1.52519-1.42179 2.30935s-.77552 1.50796-1.01679 2.0767c-.24127.56873-.37914.98232-.49115 1.49075-.11202.50843-.19818 1.11159-.27573 1.71477-.0776.60319-.14649 1.20636-.13784 1.77511.009.56875.0948 1.10298.20684 1.62861.11204.52564.24991 1.04265.38782 1.41317.13791.37053.27578.59456.38771.39203z"/><path d="m141.78127 158.60674c.23166.0549.69472.16453 1.25527.22239.56055.0579 1.21858.064 1.68471.0731.46612.009.74029.0213 1.14244.0274.40214.006.93222.006 1.46536 0 .53315-.006 1.06932-.0183 1.50496-.0488s.77076-.0792 1.03881-.1493c.26806-.0701.46913-.16148.57267-.14917.10354.0123.10964.1281.0487.26815-.0609.14004-.1889.30455-.31685.45382-.12794.14927-.25589.28331-.49648.38078-.24059.0975-.59398.1584-.98393.20107-.38994.0427-.81645.0671-1.27952.0976-.46308.0305-.96269.067-1.50802.0792-.54532.0122-1.13633-.00002-1.69384-.0335-.55751-.0335-1.0815-.0883-1.4745-.17056-.39299-.0822-.65499-.19189-.88959-.35026s-.44176-.36553-.57889-.53002c-.13712-.16448-.20415-.28635-.20723-.35657-.003-.0702.0579-.0885.14934-.0915.0915-.003.21332.009.27413.0153.0608.006.0608.006.29246.0609z"/><path d="m141.85438 160.37981c.23166.0549.69473.16453 1.25527.22239.56055.0579 1.21859.064 1.68472.0731.46612.009.7403.0214 1.14244.0274s.93222.006 1.46536 0c.53315-.006 1.06933-.0183 1.50496-.0488.43564-.0305.77075-.0792 1.03881-.1493s.46912-.16147.57266-.14916c.10355.0123.10965.12809.0487.26814-.0609.14004-.1889.30455-.31685.45382-.12794.14927-.25589.28331-.49648.38078-.24059.0975-.59399.1584-.98393.20108-.38994.0427-.81645.0671-1.27952.0975-.46308.0305-.9627.067-1.50803.0792-.54532.0122-1.13633-.00002-1.69384-.0335-.55751-.0335-1.0815-.0883-1.47449-.17056-.39299-.0822-.65499-.19189-.88959-.35026s-.44177-.36553-.57889-.53002c-.13713-.16448-.20416-.28635-.20722-.35657-.003-.0702.0579-.0885.14933-.0915.0915-.003.21331.009.27413.0153.0608.006.0608.006.29245.0609z"/><path d="m141.76299 161.95181c.23166.0549.69473.16454 1.25527.22239.56055.0579 1.21858.064 1.68471.0731.46612.009.74029.0213 1.14244.0274.40214.006.93222.006 1.46537 0s1.06932-.0183 1.50495-.0488c.43564-.0305.77076-.0792 1.03881-.1493.26806-.0701.46913-.16148.57267-.14917.10354.0123.10964.1281.0487.26815-.0609.14004-.1889.30455-.31685.45382-.12794.14927-.25589.28331-.49648.38078-.24059.0975-.59398.1584-.98393.20107-.38994.0427-.81644.0671-1.27951.0976-.46308.0305-.9627.067-1.50803.0792s-1.13634-.00002-1.69384-.0335c-.55751-.0335-1.0815-.0883-1.4745-.17056-.39299-.0822-.65498-.19189-.88958-.35026-.23461-.15837-.44177-.36553-.5789-.53002-.13712-.16448-.20415-.28635-.20723-.35657-.003-.0702.0579-.0885.14934-.0916.0915-.003.21332.009.27413.0153.0608.006.0608.006.29246.0609z"/><path d="m141.78127 163.77972c.23166.0549.69473.16454 1.25527.22239.56055.0579 1.21858.064 1.68471.0731.46612.009.74029.0213 1.14244.0274.40214.006.93222.006 1.46536 0 .53315-.006 1.06933-.0183 1.50496-.0488.43564-.0305.77076-.0792 1.03881-.1493.26806-.0701.46913-.16148.57267-.14917.10354.0123.10964.1281.0487.26815-.0609.14004-.1889.30455-.31685.45382-.12794.14927-.25589.28331-.49648.38078-.24059.0975-.59398.1584-.98393.20107-.38994.0427-.81645.0671-1.27952.0976-.46308.0305-.96269.067-1.50802.0792s-1.13634-.00002-1.69384-.0335c-.55751-.0335-1.0815-.0883-1.4745-.17056-.39299-.0822-.65499-.19189-.88959-.35026s-.44176-.36553-.57889-.53002c-.13712-.16448-.20415-.28635-.20723-.35657-.003-.0702.0579-.0885.14934-.0916.0915-.003.21332.009.27413.0153.0608.006.0608.006.29246.0609z"/></g><path d="m140.27312 182.16845c-.0701.0731-.21021.21935-.21317.38703-.003.16767.13108.35655.38703.54843s.63371.38686.97186.61842c.33815.23157.63671.49966.97182.81041.33512.31076.70679.66414 1.12418.96267.4174.29853.88046.54224 1.34354.75548.46307.21324.92613.39603 1.48974.54833.5636.1523 1.22773.27416 1.59926.24981.37154-.0243.45075-.19495.51168-.37163.0609-.17667.10359-.35944.009-.46614-.0943-.10669-.32584-.13715-.60309-.1524-.27725-.0153-.60017-.0153-.93222-.10658-.33206-.0913-.67326-.27412-1.03275-.47214-.3595-.19802-.73726-.41127-1.08153-.63974s-.655-.47218-1.02363-.74334c-.36863-.27115-.79513-.5697-1.14549-.8317-.35036-.26199-.62454-.48743-.85911-.65805-.23458-.17063-.42955-.2864-.66414-.37783-.23458-.0914-.50876-.15846-.64598-.1767-.13721-.0182-.13721.0123-.13721.0274 0 .0152 0 .0151-.0701.0883z" fill="#fff"/><path d="m142.21681 203.53364c.26506-.20413.79515-.61236 1.22776-.95662.4326-.34425.76771-.62453 1.08765-.81342.31995-.1889.62459-.28639.91098-.36255.28639-.0762.55448-.13099.83472-.23458.28024-.10358.5727-.2559.86819-.45088.29549-.19497.59404-.43259.91391-.74028s.66107-.68544.94747-.95965.51793-.44481.74347-.45995c.22555-.0151.4449.12499.60632.28346.16142.15848.265.33517.24358.55138-.0214.21622-.16765.47212-.36565.70362-.198.23149-.44781.43865-.73115.70981-.28334.27115-.60017.60626-.92308.88348s-.65192.49656-.95353.69458c-.3016.19803-.57578.37472-.81944.46918-.24365.0945-.4569.10666-.76769.18282-.31078.0761-.71901.21629-1.02672.3351-.30772.11882-.51487.21631-.80125.34426-.28637.12796-.65195.28637-.91701.41433s-.42958.22544-.62142.25899c-.19185.0335-.41119.003-.5362-.11564-.12501-.11872-.15548-.32587-.17073-.42958-.0153-.1037-.0152-.10373.24982-.30786z" fill="#fff"/><path d="m129.47972 189.02363c-.0517.0948-.15512.28439-.26284.57309-.10771.2887-.21973.67645-.26278 1.06425-.0431.3878-.0172.77555.0216 1.12885.0388.35331.0905.67212.15945.9608.069.28868.15513.54717.24992.79275.0948.24558.1982.47823.25415.74965.056.27142.0646.58162.0602.80564-.004.22402-.0216.3619-.0302.52994-.009.16804-.009.36622-.009.61612 0 .24989 0 .55147.0129.83584s.0388.55148.0496.73243c.0108.18094.006.2757.009.42652.002.15082.0108.35761.0431.51273.0324.15511.0884.25852.21123.34245.12284.0839.31242.14856.49334.1679.18091.0193.35325-.006.48026-.0711.127-.0646.20885-.16799.26916-.32734.0603-.15935.0991-.37476.10989-.64832.0108-.27356-.006-.6053.006-.86815.0129-.26285.056-.45673.0797-.69582.0237-.2391.028-.52345.0237-.79272-.004-.26927-.0172-.52346-.0259-.78628-.009-.26282-.0129-.53424 0-.72601.0129-.19176.0431-.30376.056-.48253.013-.17877.009-.42434-.0107-.64191-.0194-.21758-.0538-.40714-.11409-.54504-.0602-.13791-.14638-.22403-.2541-.3425-.10772-.11848-.23697-.26927-.28447-.45457-.0475-.18529-.013-.40501.002-.65703.0151-.25203.0108-.53638-.0172-.78841-.028-.25204-.0797-.47175-.1077-.66349s-.0323-.35545-.0667-.47392-.099-.19175-.20669-.24568c-.10768-.0539-.25848-.0884-.4136-.10567-.15513-.0173-.31454-.0173-.39435-.0173-.0798 0-.0799-.00004-.13163.0948z" fill="#fff"/></g><path d="m49.0539 261.39177c.01845-.038.05529-.11387.123652-.1909.06835-.077.168133-.15513.269017-.21912.100889-.064.20284-.1139.299369-.15944.09653-.0455.187644-.0868.282006-.12908.09436-.0423.191976-.0857.309119-.13449.117142-.0488.253813-.10304.4024-.16703.148587-.064.309107-.13775.437115-.18221.128001-.0445.223449-.0596.2983-.0368.07485.0228.12907.0836.13335.14861.0041.065-.04128.13445-.101999.20494-.06073.0705-.136648.14207-.229924.22341-.09328.0813-.203909.17245-.319954.25597-.116051.0835-.23752.15943-.343827.23861-.106307.0792-.197411.16162-.278725.21367-.08131.0521-.152907.0738-.27329.0976-.120389.0239-.289578.0499-.42514.0553-.135562.005-.237514-.01-.324287-.0292-.08677-.0195-.158359-.0434-.20176-.0694-.04338-.026-.05858-.0542-.0662-.0684-.0076-.0142-.0076-.0142.0108-.0521z" fill="#97714b"/><path d="m24.403255 212.87085c2.150146-1.57303 4.315874-3.13018 6.481001-4.67113 2.167235 1.52387 4.299989 3.07981 6.448629 4.62046-.77947-2.5051-1.607811-5.00899-2.436146-7.4976 2.148336-1.57303 4.315267-3.11339 6.480394-4.66993-2.673274-.0171-5.347161 0-8.039041-.0171-.812146-2.52129-1.623691-5.02668-2.453836-7.54827-.828633 2.52159-1.607805 5.04378-2.470316 7.54827-2.656805-.0168-5.313898-.0168-7.970697 0 2.115065 1.59072 4.298783 3.0975 6.430638 4.65344-.795064 2.52189-1.640791 5.04378-2.470626 7.58185z" fill="#f2d90b"/></g></svg>